<?xml version="1.0" encoding="UTF-8"?>
<!DOCTYPE svg PUBLIC "-//W3C//DTD SVG 1.1//EN" "http://www.w3.org/Graphics/SVG/1.1/DTD/svg11.dtd">
<svg xmlns="http://www.w3.org/2000/svg" version="1.1" width="50px" height="50px" style="shape-rendering:geometricPrecision; text-rendering:geometricPrecision; image-rendering:optimizeQuality; fill-rule:evenodd; clip-rule:evenodd" xmlns:xlink="http://www.w3.org/1999/xlink">
<g><path style="opacity:0.722" fill="#000000" d="M 9.5,2.5 C 16.0001,1.49867 18.5001,4.16534 17,10.5C 16.3109,11.3567 15.4776,12.0233 14.5,12.5C 13.3368,18.1375 13.1701,23.8041 14,29.5C 14.9025,28.2986 16.0692,27.4652 17.5,27C 22.8878,26.1257 28.0545,24.6257 33,22.5C 33.6377,21.3914 34.1377,20.2247 34.5,19C 32.8128,17.1474 31.8128,14.9807 31.5,12.5C 32.1926,7.84874 34.8593,6.34874 39.5,8C 41.4439,10.1529 41.9439,12.6529 41,15.5C 38.4267,18.8938 35.9267,22.3938 33.5,26C 27.562,27.5848 21.7286,29.4182 16,31.5C 13.7909,34.2036 14.1243,36.537 17,38.5C 18.5,45 16,47.5 9.5,46C 6.61984,42.4566 6.95317,39.2899 10.5,36.5C 11.8333,28.5 11.8333,20.5 10.5,12.5C 6.89781,9.54124 6.56448,6.20791 9.5,2.5 Z M 10.5,5.5 C 11.8333,5.5 13.1667,5.5 14.5,5.5C 14.5,6.83333 14.5,8.16667 14.5,9.5C 13.1667,9.5 11.8333,9.5 10.5,9.5C 10.5,8.16667 10.5,6.83333 10.5,5.5 Z M 34.5,10.5 C 35.8333,10.5 37.1667,10.5 38.5,10.5C 38.5,11.8333 38.5,13.1667 38.5,14.5C 37.1667,14.5 35.8333,14.5 34.5,14.5C 34.5,13.1667 34.5,11.8333 34.5,10.5 Z M 10.5,39.5 C 11.8333,39.5 13.1667,39.5 14.5,39.5C 14.5,40.8333 14.5,42.1667 14.5,43.5C 13.1667,43.5 11.8333,43.5 10.5,43.5C 10.5,42.1667 10.5,40.8333 10.5,39.5 Z"/></g>
</svg>
