<?xml version="1.0" encoding="UTF-8"?>
<!DOCTYPE svg PUBLIC "-//W3C//DTD SVG 1.1//EN" "http://www.w3.org/Graphics/SVG/1.1/DTD/svg11.dtd">
<svg xmlns="http://www.w3.org/2000/svg" version="1.1" width="50px" height="50px" style="shape-rendering:geometricPrecision; text-rendering:geometricPrecision; image-rendering:optimizeQuality; fill-rule:evenodd; clip-rule:evenodd" xmlns:xlink="http://www.w3.org/1999/xlink">
<g><path style="opacity:0.979" fill="#000000" d="M 8.5,5.5 C 19.1667,5.5 29.8333,5.5 40.5,5.5C 40.5,7.5 40.5,9.5 40.5,11.5C 36.1667,11.5 31.8333,11.5 27.5,11.5C 27.5,22.1667 27.5,32.8333 27.5,43.5C 25.5,43.5 23.5,43.5 21.5,43.5C 21.5,32.8333 21.5,22.1667 21.5,11.5C 17.1667,11.5 12.8333,11.5 8.5,11.5C 8.5,9.5 8.5,7.5 8.5,5.5 Z M 10.5,7.5 C 19.8571,7.16836 29.1904,7.50169 38.5,8.5C 34.2172,9.49224 29.8839,9.82557 25.5,9.5C 24.8333,52.1667 24.1667,52.1667 23.5,9.5C 18.706,10.0969 14.3727,9.43023 10.5,7.5 Z"/></g>
</svg>
