<?xml version="1.0" encoding="UTF-8"?>
<!DOCTYPE svg PUBLIC "-//W3C//DTD SVG 1.1//EN" "http://www.w3.org/Graphics/SVG/1.1/DTD/svg11.dtd">
<svg xmlns="http://www.w3.org/2000/svg" version="1.1" width="24px" height="24px" style="shape-rendering:geometricPrecision; text-rendering:geometricPrecision; image-rendering:optimizeQuality; fill-rule:evenodd; clip-rule:evenodd" xmlns:xlink="http://www.w3.org/1999/xlink">
<g><path style="opacity:0.994" fill="#000000" d="M -0.5,1.5 C 7.5,1.5 15.5,1.5 23.5,1.5C 23.5,2.16667 23.5,2.83333 23.5,3.5C 15.5,3.5 7.5,3.5 -0.5,3.5C -0.5,2.83333 -0.5,2.16667 -0.5,1.5 Z"/></g>
<g><path style="opacity:0.994" fill="#000000" d="M -0.5,7.5 C 7.5,7.5 15.5,7.5 23.5,7.5C 23.5,8.16667 23.5,8.83333 23.5,9.5C 15.5,9.5 7.5,9.5 -0.5,9.5C -0.5,8.83333 -0.5,8.16667 -0.5,7.5 Z"/></g>
<g><path style="opacity:0.994" fill="#000000" d="M -0.5,13.5 C 7.5,13.5 15.5,13.5 23.5,13.5C 23.5,14.1667 23.5,14.8333 23.5,15.5C 15.5,15.5 7.5,15.5 -0.5,15.5C -0.5,14.8333 -0.5,14.1667 -0.5,13.5 Z"/></g>
<g><path style="opacity:0.991" fill="#000000" d="M -0.5,19.5 C 20.8333,20.1667 20.8333,20.8333 -0.5,21.5C -0.5,20.8333 -0.5,20.1667 -0.5,19.5 Z"/></g>
</svg>
