<?xml version="1.0" encoding="UTF-8"?>
<!DOCTYPE svg PUBLIC "-//W3C//DTD SVG 1.1//EN" "http://www.w3.org/Graphics/SVG/1.1/DTD/svg11.dtd">
<svg xmlns="http://www.w3.org/2000/svg" version="1.1" width="64px" height="64px" style="shape-rendering:geometricPrecision; text-rendering:geometricPrecision; image-rendering:optimizeQuality; fill-rule:evenodd; clip-rule:evenodd" xmlns:xlink="http://www.w3.org/1999/xlink">
<g><path style="opacity:0.916" fill="#0d0a06" d="M 17.5,1.5 C 28.8371,-0.489528 34.1704,4.17714 33.5,15.5C 34.5,15.5 35.5,15.5 36.5,15.5C 36.5,17.5 36.5,19.5 36.5,21.5C 35.5,21.5 34.5,21.5 33.5,21.5C 33.6621,23.5273 33.4955,25.5273 33,27.5C 30.8685,30.1018 29.0352,32.7684 27.5,35.5C 29.5,35.8333 31.5,36.1667 33.5,36.5C 33.5,35.5 33.5,34.5 33.5,33.5C 41.5,34.8333 49.5,34.8333 57.5,33.5C 57.5,34.5 57.5,35.5 57.5,36.5C 58.8333,36.5 60.1667,36.5 61.5,36.5C 61.5,43.5 61.5,50.5 61.5,57.5C 55.477,57.502 49.477,57.8354 43.5,58.5C 43.5,59.5 43.5,60.5 43.5,61.5C 29.5,61.5 15.5,61.5 1.5,61.5C -3.1764,46.2451 2.15694,37.5785 17.5,35.5C 15.9648,32.7684 14.1315,30.1018 12,27.5C 11.5045,25.5273 11.3379,23.5273 11.5,21.5C 10.5,21.5 9.5,21.5 8.5,21.5C 8.5,19.5 8.5,17.5 8.5,15.5C 9.5,15.5 10.5,15.5 11.5,15.5C 10.2682,9.30961 12.2682,4.64294 17.5,1.5 Z"/></g>
<g><path style="opacity:1" fill="#545359" d="M 19.5,3.5 C 24.7389,2.95876 28.5723,4.95876 31,9.5C 31.7805,10.9437 31.6139,12.277 30.5,13.5C 29.1667,12.5 27.8333,11.5 26.5,10.5C 22.6178,13.1608 18.2845,14.1608 13.5,13.5C 13.4694,8.88679 15.4694,5.55346 19.5,3.5 Z"/></g>
<g><path style="opacity:1" fill="#ecb56e" d="M 24.5,13.5 C 26.1033,13.3118 27.4366,13.8118 28.5,15C 25.594,16.3185 22.594,16.6518 19.5,16C 21.6526,15.9005 23.3192,15.0672 24.5,13.5 Z"/></g>
<g><path style="opacity:1" fill="#e7b16c" d="M 13.5,15.5 C 16.0009,15.5109 16.1676,16.1776 14,17.5C 13.5357,16.9056 13.369,16.2389 13.5,15.5 Z"/></g>
<g><path style="opacity:1" fill="#eab46d" d="M 29.5,16.5 C 30.0768,15.2267 30.7435,15.2267 31.5,16.5C 31.0302,17.463 30.3635,17.463 29.5,16.5 Z"/></g>
<g><path style="opacity:1" fill="#000000" d="M 16.5,18.5 C 18.337,18.6395 18.6704,19.3061 17.5,20.5C 16.7025,20.0431 16.3691,19.3764 16.5,18.5 Z"/></g>
<g><path style="opacity:1" fill="#000000" d="M 26.5,18.5 C 28.337,18.6395 28.6704,19.3061 27.5,20.5C 26.7025,20.0431 26.3691,19.3764 26.5,18.5 Z"/></g>
<g><path style="opacity:1" fill="#f1b970" d="M 21.5,18.5 C 23.0876,19.6413 24.4209,21.1413 25.5,23C 27.7008,23.8249 29.5341,23.3249 31,21.5C 30.859,28.9659 27.0256,32.1326 19.5,31C 15.1837,29.194 13.3503,26.0273 14,21.5C 18.1615,24.6677 20.6615,23.6677 21.5,18.5 Z"/></g>
<g><path style="opacity:1" fill="#18130d" d="M 18.5,24.5 C 20.0443,24.7031 21.3777,25.3698 22.5,26.5C 23.5,25.8333 24.5,25.1667 25.5,24.5C 26.2811,26.7653 25.2811,28.0986 22.5,28.5C 20.1517,28.1517 18.8184,26.8184 18.5,24.5 Z"/></g>
<g><path style="opacity:1" fill="#efb66b" d="M 19.5,33.5 C 21.5,33.5 23.5,33.5 25.5,33.5C 26.5081,38.6673 24.6748,40.334 20,38.5C 19.5065,36.8659 19.3398,35.1992 19.5,33.5 Z"/></g>
<g><path style="opacity:1" fill="#d0d2d3" d="M 35.5,35.5 C 38.2492,35.2739 40.9159,35.6072 43.5,36.5C 44.4941,41.456 44.8275,46.456 44.5,51.5C 41.5,51.5 38.5,51.5 35.5,51.5C 35.5,46.1667 35.5,40.8333 35.5,35.5 Z"/></g>
<g><path style="opacity:1" fill="#e4e5e6" d="M 47.5,35.5 C 50.1667,35.5 52.8333,35.5 55.5,35.5C 55.5,40.8333 55.5,46.1667 55.5,51.5C 52.5,51.5 49.5,51.5 46.5,51.5C 46.2175,46.0735 46.5509,40.7401 47.5,35.5 Z"/></g>
<g><path style="opacity:1" fill="#00c9b0" d="M 13.5,38.5 C 15.1992,38.3398 16.8659,38.5065 18.5,39C 19.459,40.4638 20.7923,41.2972 22.5,41.5C 24.639,40.0229 26.9723,39.0229 29.5,38.5C 29.5,44.8333 29.5,51.1667 29.5,57.5C 31.288,57.2148 32.9547,57.5481 34.5,58.5C 26.5277,59.4977 18.5277,59.831 10.5,59.5C 9.83333,44.8333 9.16667,44.8333 8.5,59.5C 6.83333,59.5 5.16667,59.5 3.5,59.5C 3.33418,54.8215 3.50085,50.1548 4,45.5C 6.08631,41.5547 9.25298,39.2213 13.5,38.5 Z"/></g>
<g><path style="opacity:1" fill="#348fd7" d="M 31.5,38.5 C 33.4417,43.0557 34.1083,48.0557 33.5,53.5C 41.5,54.8333 49.5,54.8333 57.5,53.5C 57.1725,48.456 57.5059,43.456 58.5,38.5C 59.4954,44.1278 59.8288,49.7945 59.5,55.5C 50.1667,56.8333 40.8333,56.8333 31.5,55.5C 31.5,49.8333 31.5,44.1667 31.5,38.5 Z"/></g>
<g><path style="opacity:1" fill="#000000" d="M 48.5,38.5 C 50.288,38.2148 51.9547,38.5481 53.5,39.5C 52.6667,39.8333 51.8333,40.1667 51,40.5C 49.6244,40.3158 48.7911,39.6491 48.5,38.5 Z"/></g>
<g><path style="opacity:1" fill="#000000" d="M 37.5,38.5 C 39.288,38.2148 40.9547,38.5481 42.5,39.5C 41.6667,39.8333 40.8333,40.1667 40,40.5C 38.6244,40.3158 37.7911,39.6491 37.5,38.5 Z"/></g>
<g><path style="opacity:1" fill="#000000" d="M 37.5,42.5 C 39.288,42.2148 40.9547,42.5481 42.5,43.5C 41.6667,43.8333 40.8333,44.1667 40,44.5C 38.6244,44.3158 37.7911,43.6491 37.5,42.5 Z"/></g>
<g><path style="opacity:1" fill="#000000" d="M 48.5,42.5 C 50.288,42.2148 51.9547,42.5481 53.5,43.5C 52.6667,43.8333 51.8333,44.1667 51,44.5C 49.6244,44.3158 48.7911,43.6491 48.5,42.5 Z"/></g>
<g><path style="opacity:1" fill="#000000" d="M 37.5,46.5 C 39.288,46.2148 40.9547,46.5481 42.5,47.5C 41.6667,47.8333 40.8333,48.1667 40,48.5C 38.6244,48.3158 37.7911,47.6491 37.5,46.5 Z"/></g>
<g><path style="opacity:1" fill="#000000" d="M 48.5,46.5 C 50.288,46.2148 51.9547,46.5481 53.5,47.5C 52.6667,47.8333 51.8333,48.1667 51,48.5C 49.6244,48.3158 48.7911,47.6491 48.5,46.5 Z"/></g>
<g><path style="opacity:1" fill="#00ccb2" d="M 36.5,57.5 C 38.288,57.2148 39.9547,57.5481 41.5,58.5C 40.6667,58.8333 39.8333,59.1667 39,59.5C 37.6244,59.3158 36.7911,58.6491 36.5,57.5 Z"/></g>
</svg>
