<?xml version="1.0" encoding="UTF-8"?>
<!DOCTYPE svg PUBLIC "-//W3C//DTD SVG 1.1//EN" "http://www.w3.org/Graphics/SVG/1.1/DTD/svg11.dtd">
<svg xmlns="http://www.w3.org/2000/svg" version="1.1" width="64px" height="64px" style="shape-rendering:geometricPrecision; text-rendering:geometricPrecision; image-rendering:optimizeQuality; fill-rule:evenodd; clip-rule:evenodd" xmlns:xlink="http://www.w3.org/1999/xlink">
<g><path style="opacity:0.933" fill="#060303" d="M 16.5,1.5 C 25.822,-0.748936 32.6553,2.25106 37,10.5C 37.4974,13.146 37.6641,15.8127 37.5,18.5C 42.3833,19.4655 43.7166,22.2988 41.5,27C 43.8907,27.2868 46.2241,27.7868 48.5,28.5C 52.7649,27.5614 57.0983,27.2281 61.5,27.5C 61.5,34.8333 61.5,42.1667 61.5,49.5C 37.5,50.1667 37.5,50.8333 61.5,51.5C 61.5,54.8333 61.5,58.1667 61.5,61.5C 41.5,61.5 21.5,61.5 1.5,61.5C 1.33385,55.4908 1.50051,49.4908 2,43.5C 5.41799,40.0182 9.58466,37.8516 14.5,37C 11.3588,35.3789 8.19218,33.8789 5,32.5C 3.20177,28.696 2.5351,24.696 3,20.5C 4.10963,18.9632 5.60963,18.2965 7.5,18.5C 6.68262,10.6876 9.68262,5.02095 16.5,1.5 Z M 33.5,34.5 C 34.5862,34.62 35.2528,35.2867 35.5,36.5C 35.1667,37.1667 34.8333,37.8333 34.5,38.5C 33.2054,37.9017 31.8721,37.4017 30.5,37C 31.9423,36.6232 32.9423,35.7899 33.5,34.5 Z"/></g>
<g><path style="opacity:1" fill="#525157" d="M 18.5,3.5 C 29.3611,3.25068 30.3611,6.41735 21.5,13C 18.3214,14.4613 14.9881,15.2946 11.5,15.5C 11.1908,20.2675 11.6908,24.9342 13,29.5C 14.3513,31.019 15.8513,32.3523 17.5,33.5C 14.825,34.9958 12.825,34.3292 11.5,31.5C 9.95787,32.7468 8.45787,32.7468 7,31.5C 6.72658,28.6069 5.89325,25.9403 4.5,23.5C 5.0728,20.9147 6.73947,19.9147 9.5,20.5C 8.59732,12.6332 11.5973,6.96654 18.5,3.5 Z"/></g>
<g><path style="opacity:1" fill="#504f55" d="M 29.5,6.5 C 32.4521,7.35885 34.2854,9.35885 35,12.5C 35.4974,15.146 35.6641,17.8127 35.5,20.5C 39.6772,19.8416 41.1772,21.5082 40,25.5C 36.5439,26.5481 35.0439,28.8814 35.5,32.5C 33.3254,32.6822 31.3254,33.3489 29.5,34.5C 28.8333,34.1667 28.1667,33.8333 27.5,33.5C 30.2844,31.8858 32.1177,29.5524 33,26.5C 33.4988,22.5138 33.6655,18.5138 33.5,14.5C 26.1752,14.5198 24.8419,11.8532 29.5,6.5 Z"/></g>
<g><path style="opacity:1" fill="#f3bb71" d="M 23.5,13.5 C 26.1931,14.5515 28.8598,15.5515 31.5,16.5C 32.3616,22.0389 31.0282,26.8722 27.5,31C 16.7024,33.3762 12.0358,28.8762 13.5,17.5C 17.3267,17.2484 20.6601,15.9151 23.5,13.5 Z"/></g>
<g><path style="opacity:1" fill="#130e07" d="M 17.5,18.5 C 20.8606,19.2032 21.1939,20.5365 18.5,22.5C 16.3576,21.5629 16.0243,20.2296 17.5,18.5 Z"/></g>
<g><path style="opacity:1" fill="#130e07" d="M 25.5,18.5 C 28.8606,19.2032 29.1939,20.5365 26.5,22.5C 24.3576,21.5629 24.0243,20.2296 25.5,18.5 Z"/></g>
<g><path style="opacity:1" fill="#19140d" d="M 19.5,27.5 C 21.2884,26.3775 23.2884,26.2109 25.5,27C 23.6349,28.7998 21.6349,28.9664 19.5,27.5 Z"/></g>
<g><path style="opacity:1" fill="#e3e4e5" d="M 37.5,29.5 C 40.5184,29.3354 43.5184,29.502 46.5,30C 47.6349,34.7477 47.8015,39.581 47,44.5C 43.9433,43.5495 40.7766,43.2161 37.5,43.5C 37.5,38.8333 37.5,34.1667 37.5,29.5 Z"/></g>
<g><path style="opacity:1" fill="#e3e4e5" d="M 50.5,29.5 C 53.5,29.5 56.5,29.5 59.5,29.5C 59.5,34.1667 59.5,38.8333 59.5,43.5C 56.2234,43.2161 53.0567,43.5495 50,44.5C 49.2223,39.4158 49.3889,34.4158 50.5,29.5 Z"/></g>
<g><path style="opacity:1" fill="#000000" d="M 39.5,31.5 C 41.604,31.2011 43.604,31.5344 45.5,32.5C 44.5,32.8333 43.5,33.1667 42.5,33.5C 40.9704,33.3601 39.9704,32.6935 39.5,31.5 Z"/></g>
<g><path style="opacity:1" fill="#000000" d="M 51.5,31.5 C 53.604,31.2011 55.604,31.5344 57.5,32.5C 56.5,32.8333 55.5,33.1667 54.5,33.5C 52.9704,33.3601 51.9704,32.6935 51.5,31.5 Z"/></g>
<g><path style="opacity:1" fill="#eeb66c" d="M 19.5,34.5 C 21.5,34.5 23.5,34.5 25.5,34.5C 26.0772,38.0798 25.0772,41.0798 22.5,43.5C 19.9228,41.0798 18.9228,38.0798 19.5,34.5 Z"/></g>
<g><path style="opacity:1" fill="#000000" d="M 39.5,35.5 C 41.604,35.2011 43.604,35.5344 45.5,36.5C 44.5,36.8333 43.5,37.1667 42.5,37.5C 40.9704,37.3601 39.9704,36.6935 39.5,35.5 Z"/></g>
<g><path style="opacity:1" fill="#000000" d="M 51.5,35.5 C 53.604,35.2011 55.604,35.5344 57.5,36.5C 56.5,36.8333 55.5,37.1667 54.5,37.5C 52.9704,37.3601 51.9704,36.6935 51.5,35.5 Z"/></g>
<g><path style="opacity:1" fill="#b0125d" d="M 16.5,37.5 C 17.782,38.7082 17.782,40.0416 16.5,41.5C 15.3744,40.1916 15.3744,38.8583 16.5,37.5 Z"/></g>
<g><path style="opacity:1" fill="#b0125d" d="M 27.5,37.5 C 29.4759,38.4271 29.8092,39.7605 28.5,41.5C 27.5713,40.3112 27.238,38.9778 27.5,37.5 Z"/></g>
<g><path style="opacity:1" fill="#000000" d="M 39.5,39.5 C 41.604,39.2011 43.604,39.5344 45.5,40.5C 44.5,40.8333 43.5,41.1667 42.5,41.5C 40.9704,41.3601 39.9704,40.6935 39.5,39.5 Z"/></g>
<g><path style="opacity:1" fill="#000000" d="M 51.5,39.5 C 53.604,39.2011 55.604,39.5344 57.5,40.5C 56.5,40.8333 55.5,41.1667 54.5,41.5C 52.9704,41.3601 51.9704,40.6935 51.5,39.5 Z"/></g>
<g><path style="opacity:1" fill="#e63388" d="M 9.5,40.5 C 10.8333,40.5 12.1667,40.5 13.5,40.5C 13.2148,42.288 13.5481,43.9547 14.5,45.5C 15.8333,42.8333 17.1667,42.8333 18.5,45.5C 19.9987,43.1978 21.332,43.5311 22.5,46.5C 23.668,43.5311 25.0013,43.1978 26.5,45.5C 27.8333,42.8333 29.1667,42.8333 30.5,45.5C 31.1667,43.8333 31.8333,42.1667 32.5,40.5C 33.1667,40.8333 33.8333,41.1667 34.5,41.5C 35.48,44.0865 35.8134,46.7531 35.5,49.5C 43.1962,49.7706 43.3629,50.7706 36,52.5C 35.5034,54.8098 35.3367,57.1432 35.5,59.5C 27.4723,59.831 19.4723,59.4977 11.5,58.5C 9.64162,55.2122 8.97496,51.8789 9.5,48.5C 7.008,51.93 7.008,55.43 9.5,59C 7.5273,59.4955 5.5273,59.6621 3.5,59.5C 3.33418,54.8215 3.50085,50.1548 4,45.5C 5.35157,43.251 7.18491,41.5844 9.5,40.5 Z"/></g>
<g><path style="opacity:1" fill="#a3a2a7" d="M 37.5,45.5 C 41.0479,45.0949 44.3812,45.5949 47.5,47C 45.8333,47.1667 44.1667,47.3333 42.5,47.5C 40.3603,47.4439 38.6936,46.7773 37.5,45.5 Z"/></g>
<g><path style="opacity:1" fill="#a4a3a9" d="M 50.5,45.5 C 53.5719,45.1826 56.5719,45.5159 59.5,46.5C 56.2156,47.657 52.8823,47.8236 49.5,47C 50.056,46.6174 50.3893,46.1174 50.5,45.5 Z"/></g>
<g><path style="opacity:1" fill="#000000" d="M 21.5,48.5 C 23.337,48.6395 23.6704,49.3061 22.5,50.5C 21.7025,50.0431 21.3691,49.3764 21.5,48.5 Z"/></g>
<g><path style="opacity:1" fill="#000000" d="M 21.5,52.5 C 23.337,52.6395 23.6704,53.3061 22.5,54.5C 21.7025,54.0431 21.3691,53.3764 21.5,52.5 Z"/></g>
<g><path style="opacity:1" fill="#fe9810" d="M 41.5,53.5 C 47.5368,53.1707 53.5368,53.5041 59.5,54.5C 56.5,54.8333 53.5,55.1667 50.5,55.5C 47.0866,55.483 44.0866,54.8164 41.5,53.5 Z"/></g>
<g><path style="opacity:1" fill="#ac6200" d="M 37.5,53.5 C 39.337,53.6395 39.6704,54.3061 38.5,55.5C 37.7025,55.0431 37.3691,54.3764 37.5,53.5 Z"/></g>
<g><path style="opacity:1" fill="#1a6eb0" d="M 41.5,57.5 C 47.5368,57.1707 53.5368,57.5041 59.5,58.5C 56.5,58.8333 53.5,59.1667 50.5,59.5C 47.0866,59.483 44.0866,58.8164 41.5,57.5 Z"/></g>
<g><path style="opacity:1" fill="#196dad" d="M 37.5,57.5 C 39.337,57.6395 39.6704,58.3061 38.5,59.5C 37.7025,59.0431 37.3691,58.3764 37.5,57.5 Z"/></g>
</svg>
