<?xml version="1.0" encoding="UTF-8"?>
<!DOCTYPE svg PUBLIC "-//W3C//DTD SVG 1.1//EN" "http://www.w3.org/Graphics/SVG/1.1/DTD/svg11.dtd">
<svg xmlns="http://www.w3.org/2000/svg" version="1.1" width="50px" height="50px" style="shape-rendering:geometricPrecision; text-rendering:geometricPrecision; image-rendering:optimizeQuality; fill-rule:evenodd; clip-rule:evenodd" xmlns:xlink="http://www.w3.org/1999/xlink">
<g><path style="opacity:0.643" fill="#000000" d="M 27.5,-0.5 C 31.5,-0.5 35.5,-0.5 39.5,-0.5C 43.8333,1.83333 47.1667,5.16667 49.5,9.5C 49.5,13.5 49.5,17.5 49.5,21.5C 44.7699,30.0292 37.4366,33.5292 27.5,32C 26.3474,33.883 24.6807,34.7163 22.5,34.5C 22.8333,37.5 21.5,38.8333 18.5,38.5C 18.3491,42.314 16.3491,43.9807 12.5,43.5C 12.7475,45.8583 12.0808,47.8583 10.5,49.5C 7.16667,49.5 3.83333,49.5 0.5,49.5C 0.5,48.8333 0.166667,48.5 -0.5,48.5C -0.5,45.1667 -0.5,41.8333 -0.5,38.5C 5.46474,33.0362 11.2981,27.3696 17,21.5C 15.4708,11.5634 18.9708,4.23009 27.5,-0.5 Z M 28.5,2.5 C 41.6505,1.48298 47.4839,7.48298 46,20.5C 42.2685,27.78 36.4352,30.28 28.5,28C 21.22,24.2685 18.72,18.4352 21,10.5C 23.0282,7.30777 25.5282,4.64111 28.5,2.5 Z M 30.5,7.5 C 39.6129,7.09287 42.7796,11.0929 40,19.5C 36.5,16 33,12.5 29.5,9C 30.056,8.61742 30.3893,8.11742 30.5,7.5 Z M 16.5,27.5 C 17.1217,26.3734 17.955,25.3734 19,24.5C 20.8333,26.3333 22.6667,28.1667 24.5,30C 20.8333,33.6667 17.1667,37.3333 13.5,41C 12.552,41.4828 11.552,41.6495 10.5,41.5C 10.0047,46.0188 7.67136,47.6855 3.5,46.5C 8.48495,41.0147 13.6516,35.6813 19,30.5C 19.5192,28.5106 18.6859,27.5106 16.5,27.5 Z"/></g>
<g><path style="opacity:0.599" fill="#000000" d="M 28.5,4.5 C 40.9901,2.82266 46.1568,8.15599 44,20.5C 43.2681,22.9232 41.7681,24.0899 39.5,24C 34.6667,19.1667 29.8333,14.3333 25,9.5C 25.1116,7.20275 26.2783,5.53609 28.5,4.5 Z M 30.5,7.5 C 30.3893,8.11742 30.056,8.61742 29.5,9C 33,12.5 36.5,16 40,19.5C 42.7796,11.0929 39.6129,7.09287 30.5,7.5 Z"/></g>
</svg>
