<?xml version="1.0" encoding="UTF-8"?>
<!DOCTYPE svg PUBLIC "-//W3C//DTD SVG 1.1//EN" "http://www.w3.org/Graphics/SVG/1.1/DTD/svg11.dtd">
<svg xmlns="http://www.w3.org/2000/svg" version="1.1" width="50px" height="50px" style="shape-rendering:geometricPrecision; text-rendering:geometricPrecision; image-rendering:optimizeQuality; fill-rule:evenodd; clip-rule:evenodd" xmlns:xlink="http://www.w3.org/1999/xlink">
<g><path style="opacity:0.748" fill="#000000" d="M 9.5,1.5 C 11.1667,1.5 12.8333,1.5 14.5,1.5C 14.5405,4.88055 14.2071,8.21389 13.5,11.5C 16.5,11.5 19.5,11.5 22.5,11.5C 23.8333,16.8333 23.8333,22.1667 22.5,27.5C 16.4908,27.6662 10.4908,27.4995 4.5,27C 4,26.5 3.5,26 3,25.5C 2.33333,20.8333 2.33333,16.1667 3,11.5C 5.42615,8.30878 7.59282,4.97545 9.5,1.5 Z M 10.5,7.5 C 10.5,9.5 10.5,11.5 10.5,13.5C 13.7766,13.2161 16.9433,13.5495 20,14.5C 20.6667,17.8333 20.6667,21.1667 20,24.5C 15.2126,25.6901 10.3792,25.6901 5.5,24.5C 3.41621,17.6824 5.08287,12.0157 10.5,7.5 Z"/></g>
<g><path style="opacity:0.747" fill="#000000" d="M 26.5,21.5 C 32.5092,21.3338 38.5092,21.5005 44.5,22C 45,22.5 45.5,23 46,23.5C 46.6667,28.1667 46.6667,32.8333 46,37.5C 43.7098,40.5799 41.5431,43.7466 39.5,47C 37.8659,47.4935 36.1992,47.6602 34.5,47.5C 34.4595,44.1194 34.7929,40.7861 35.5,37.5C 32.5,37.5 29.5,37.5 26.5,37.5C 25.1667,32.1667 25.1667,26.8333 26.5,21.5 Z M 38.5,41.5 C 38.5,39.5 38.5,37.5 38.5,35.5C 35.2234,35.7839 32.0567,35.4505 29,34.5C 28.3333,31.1667 28.3333,27.8333 29,24.5C 33.7874,23.3099 38.6208,23.3099 43.5,24.5C 45.5838,31.3176 43.9171,36.9843 38.5,41.5 Z"/></g>
</svg>
