<?xml version="1.0" encoding="UTF-8"?>
<!DOCTYPE svg PUBLIC "-//W3C//DTD SVG 1.1//EN" "http://www.w3.org/Graphics/SVG/1.1/DTD/svg11.dtd">
<svg xmlns="http://www.w3.org/2000/svg" version="1.1" width="50px" height="50px" style="shape-rendering:geometricPrecision; text-rendering:geometricPrecision; image-rendering:optimizeQuality; fill-rule:evenodd; clip-rule:evenodd" xmlns:xlink="http://www.w3.org/1999/xlink">
<g><path style="opacity:0.934" fill="#000000" d="M 5.5,3.5 C 18.1711,3.33345 30.8377,3.50012 43.5,4C 44,4.5 44.5,5 45,5.5C 45.6667,18.1667 45.6667,30.8333 45,43.5C 44.5,44 44,44.5 43.5,45C 30.8333,45.6667 18.1667,45.6667 5.5,45C 5,44.5 4.5,44 4,43.5C 3.33333,30.8333 3.33333,18.1667 4,5.5C 4.71719,4.9558 5.21719,4.28913 5.5,3.5 Z M 8.5,5.5 C 19.1719,5.3335 29.8385,5.50016 40.5,6C 41.3081,6.30762 41.9747,6.80762 42.5,7.5C 43.6439,18.4534 43.8105,29.4534 43,40.5C 42.6924,41.3081 42.1924,41.9747 41.5,42.5C 30.5466,43.6439 19.5466,43.8105 8.5,43C 7.69194,42.6924 7.02527,42.1924 6.5,41.5C 5.35613,30.5466 5.18947,19.5466 6,8.5C 6.69794,7.30943 7.53128,6.30943 8.5,5.5 Z M 23.5,17.5 C 25.1852,18.1837 26.1852,19.517 26.5,21.5C 28.4233,22.3078 30.4233,22.8078 32.5,23C 31.0692,23.4652 29.9025,24.2986 29,25.5C 28.9219,27.6565 28.7552,29.6565 28.5,31.5C 25.8333,28.8333 23.1667,28.8333 20.5,31.5C 20.2448,29.6565 20.0781,27.6565 20,25.5C 19.0975,24.2986 17.9308,23.4652 16.5,23C 18.5767,22.8078 20.5767,22.3078 22.5,21.5C 23.2458,20.2638 23.5792,18.9305 23.5,17.5 Z"/></g>
<g><path style="opacity:0.622" fill="#000000" d="M 23.5,8.5 C 24.4972,8.47008 25.1639,8.97008 25.5,10C 26.6621,13.1469 27.6621,16.3136 28.5,19.5C 32.5138,19.3345 36.5138,19.5012 40.5,20C 37.6881,22.9015 34.6881,25.5681 31.5,28C 32.5731,31.1203 33.5731,34.2869 34.5,37.5C 34.1667,37.8333 33.8333,38.1667 33.5,38.5C 30.624,36.5631 27.624,34.8964 24.5,33.5C 21.376,34.8964 18.376,36.5631 15.5,38.5C 15.1667,38.1667 14.8333,37.8333 14.5,37.5C 15.4269,34.2869 16.4269,31.1203 17.5,28C 14.3119,25.5681 11.3119,22.9015 8.5,20C 12.4862,19.5012 16.4862,19.3345 20.5,19.5C 21.6988,15.9014 22.6988,12.2347 23.5,8.5 Z M 23.5,17.5 C 23.5792,18.9305 23.2458,20.2638 22.5,21.5C 20.5767,22.3078 18.5767,22.8078 16.5,23C 17.9308,23.4652 19.0975,24.2986 20,25.5C 20.0781,27.6565 20.2448,29.6565 20.5,31.5C 23.1667,28.8333 25.8333,28.8333 28.5,31.5C 28.7552,29.6565 28.9219,27.6565 29,25.5C 29.9025,24.2986 31.0692,23.4652 32.5,23C 30.4233,22.8078 28.4233,22.3078 26.5,21.5C 26.1852,19.517 25.1852,18.1837 23.5,17.5 Z"/></g>
</svg>
