<?xml version="1.0" encoding="UTF-8"?>
<!DOCTYPE svg PUBLIC "-//W3C//DTD SVG 1.1//EN" "http://www.w3.org/Graphics/SVG/1.1/DTD/svg11.dtd">
<svg xmlns="http://www.w3.org/2000/svg" version="1.1" width="50px" height="50px" style="shape-rendering:geometricPrecision; text-rendering:geometricPrecision; image-rendering:optimizeQuality; fill-rule:evenodd; clip-rule:evenodd" xmlns:xlink="http://www.w3.org/1999/xlink">
<g><path style="opacity:0.978" fill="#000000" d="M 9.5,-0.5 C 11.5,-0.5 13.5,-0.5 15.5,-0.5C 15.5,0.833333 15.5,2.16667 15.5,3.5C 21.5,3.5 27.5,3.5 33.5,3.5C 33.5,2.16667 33.5,0.833333 33.5,-0.5C 35.5,-0.5 37.5,-0.5 39.5,-0.5C 39.5,0.833333 39.5,2.16667 39.5,3.5C 42.1667,3.5 44.8333,3.5 47.5,3.5C 47.5,18.1667 47.5,32.8333 47.5,47.5C 32.1667,47.5 16.8333,47.5 1.5,47.5C 1.5,32.8333 1.5,18.1667 1.5,3.5C 4.16667,3.5 6.83333,3.5 9.5,3.5C 9.5,2.16667 9.5,0.833333 9.5,-0.5 Z M 11.5,1.5 C 12.6935,1.97041 13.3601,2.97041 13.5,4.5C 13.1667,5.5 12.8333,6.5 12.5,7.5C 11.5344,5.60395 11.2011,3.60395 11.5,1.5 Z M 35.5,1.5 C 36.6935,1.97041 37.3601,2.97041 37.5,4.5C 37.1667,5.5 36.8333,6.5 36.5,7.5C 35.5344,5.60395 35.2011,3.60395 35.5,1.5 Z M 3.5,5.5 C 5.5,5.5 7.5,5.5 9.5,5.5C 9.5,6.83333 9.5,8.16667 9.5,9.5C 11.5,9.5 13.5,9.5 15.5,9.5C 15.5,8.16667 15.5,6.83333 15.5,5.5C 21.5,5.5 27.5,5.5 33.5,5.5C 33.5,6.83333 33.5,8.16667 33.5,9.5C 35.5,9.5 37.5,9.5 39.5,9.5C 39.5,8.16667 39.5,6.83333 39.5,5.5C 41.5,5.5 43.5,5.5 45.5,5.5C 45.5,7.83333 45.5,10.1667 45.5,12.5C 31.5,12.5 17.5,12.5 3.5,12.5C 3.5,10.1667 3.5,7.83333 3.5,5.5 Z M 3.5,14.5 C 17.5,14.5 31.5,14.5 45.5,14.5C 45.5,24.8333 45.5,35.1667 45.5,45.5C 31.5,45.5 17.5,45.5 3.5,45.5C 3.5,35.1667 3.5,24.8333 3.5,14.5 Z M 11.5,20.5 C 13.1667,20.5 14.8333,20.5 16.5,20.5C 16.5,22.1667 16.5,23.8333 16.5,25.5C 14.8333,25.5 13.1667,25.5 11.5,25.5C 11.5,23.8333 11.5,22.1667 11.5,20.5 Z M 18.5,20.5 C 20.1667,20.5 21.8333,20.5 23.5,20.5C 23.5,22.1667 23.5,23.8333 23.5,25.5C 21.8333,25.5 20.1667,25.5 18.5,25.5C 18.5,23.8333 18.5,22.1667 18.5,20.5 Z M 25.5,20.5 C 27.1667,20.5 28.8333,20.5 30.5,20.5C 30.5,22.1667 30.5,23.8333 30.5,25.5C 28.8333,25.5 27.1667,25.5 25.5,25.5C 25.5,23.8333 25.5,22.1667 25.5,20.5 Z M 32.5,20.5 C 34.1667,20.5 35.8333,20.5 37.5,20.5C 37.5,22.1667 37.5,23.8333 37.5,25.5C 35.8333,25.5 34.1667,25.5 32.5,25.5C 32.5,23.8333 32.5,22.1667 32.5,20.5 Z M 11.5,27.5 C 13.1667,27.5 14.8333,27.5 16.5,27.5C 16.5,29.1667 16.5,30.8333 16.5,32.5C 14.8333,32.5 13.1667,32.5 11.5,32.5C 11.5,30.8333 11.5,29.1667 11.5,27.5 Z M 18.5,27.5 C 20.1667,27.5 21.8333,27.5 23.5,27.5C 23.5,29.1667 23.5,30.8333 23.5,32.5C 21.8333,32.5 20.1667,32.5 18.5,32.5C 18.5,30.8333 18.5,29.1667 18.5,27.5 Z M 25.5,27.5 C 27.1667,27.5 28.8333,27.5 30.5,27.5C 30.5,29.1667 30.5,30.8333 30.5,32.5C 28.8333,32.5 27.1667,32.5 25.5,32.5C 25.5,30.8333 25.5,29.1667 25.5,27.5 Z M 32.5,27.5 C 34.1667,27.5 35.8333,27.5 37.5,27.5C 37.5,29.1667 37.5,30.8333 37.5,32.5C 35.8333,32.5 34.1667,32.5 32.5,32.5C 32.5,30.8333 32.5,29.1667 32.5,27.5 Z M 11.5,34.5 C 13.1667,34.5 14.8333,34.5 16.5,34.5C 16.5,36.1667 16.5,37.8333 16.5,39.5C 14.8333,39.5 13.1667,39.5 11.5,39.5C 11.5,37.8333 11.5,36.1667 11.5,34.5 Z M 18.5,34.5 C 20.1667,34.5 21.8333,34.5 23.5,34.5C 23.5,36.1667 23.5,37.8333 23.5,39.5C 21.8333,39.5 20.1667,39.5 18.5,39.5C 18.5,37.8333 18.5,36.1667 18.5,34.5 Z M 25.5,34.5 C 27.1667,34.5 28.8333,34.5 30.5,34.5C 30.5,36.1667 30.5,37.8333 30.5,39.5C 28.8333,39.5 27.1667,39.5 25.5,39.5C 25.5,37.8333 25.5,36.1667 25.5,34.5 Z M 32.5,34.5 C 34.1667,34.5 35.8333,34.5 37.5,34.5C 37.5,36.1667 37.5,37.8333 37.5,39.5C 35.8333,39.5 34.1667,39.5 32.5,39.5C 32.5,37.8333 32.5,36.1667 32.5,34.5 Z"/></g>
<g><path style="opacity:1" fill="#000000" d="M 9.5,18.5 C 19.5,18.5 29.5,18.5 39.5,18.5C 39.5,26.1667 39.5,33.8333 39.5,41.5C 29.5,41.5 19.5,41.5 9.5,41.5C 9.5,33.8333 9.5,26.1667 9.5,18.5 Z M 11.5,20.5 C 11.5,22.1667 11.5,23.8333 11.5,25.5C 13.1667,25.5 14.8333,25.5 16.5,25.5C 16.5,23.8333 16.5,22.1667 16.5,20.5C 14.8333,20.5 13.1667,20.5 11.5,20.5 Z M 18.5,20.5 C 18.5,22.1667 18.5,23.8333 18.5,25.5C 20.1667,25.5 21.8333,25.5 23.5,25.5C 23.5,23.8333 23.5,22.1667 23.5,20.5C 21.8333,20.5 20.1667,20.5 18.5,20.5 Z M 25.5,20.5 C 25.5,22.1667 25.5,23.8333 25.5,25.5C 27.1667,25.5 28.8333,25.5 30.5,25.5C 30.5,23.8333 30.5,22.1667 30.5,20.5C 28.8333,20.5 27.1667,20.5 25.5,20.5 Z M 32.5,20.5 C 32.5,22.1667 32.5,23.8333 32.5,25.5C 34.1667,25.5 35.8333,25.5 37.5,25.5C 37.5,23.8333 37.5,22.1667 37.5,20.5C 35.8333,20.5 34.1667,20.5 32.5,20.5 Z M 11.5,27.5 C 11.5,29.1667 11.5,30.8333 11.5,32.5C 13.1667,32.5 14.8333,32.5 16.5,32.5C 16.5,30.8333 16.5,29.1667 16.5,27.5C 14.8333,27.5 13.1667,27.5 11.5,27.5 Z M 18.5,27.5 C 18.5,29.1667 18.5,30.8333 18.5,32.5C 20.1667,32.5 21.8333,32.5 23.5,32.5C 23.5,30.8333 23.5,29.1667 23.5,27.5C 21.8333,27.5 20.1667,27.5 18.5,27.5 Z M 25.5,27.5 C 25.5,29.1667 25.5,30.8333 25.5,32.5C 27.1667,32.5 28.8333,32.5 30.5,32.5C 30.5,30.8333 30.5,29.1667 30.5,27.5C 28.8333,27.5 27.1667,27.5 25.5,27.5 Z M 32.5,27.5 C 32.5,29.1667 32.5,30.8333 32.5,32.5C 34.1667,32.5 35.8333,32.5 37.5,32.5C 37.5,30.8333 37.5,29.1667 37.5,27.5C 35.8333,27.5 34.1667,27.5 32.5,27.5 Z M 11.5,34.5 C 11.5,36.1667 11.5,37.8333 11.5,39.5C 13.1667,39.5 14.8333,39.5 16.5,39.5C 16.5,37.8333 16.5,36.1667 16.5,34.5C 14.8333,34.5 13.1667,34.5 11.5,34.5 Z M 18.5,34.5 C 18.5,36.1667 18.5,37.8333 18.5,39.5C 20.1667,39.5 21.8333,39.5 23.5,39.5C 23.5,37.8333 23.5,36.1667 23.5,34.5C 21.8333,34.5 20.1667,34.5 18.5,34.5 Z M 25.5,34.5 C 25.5,36.1667 25.5,37.8333 25.5,39.5C 27.1667,39.5 28.8333,39.5 30.5,39.5C 30.5,37.8333 30.5,36.1667 30.5,34.5C 28.8333,34.5 27.1667,34.5 25.5,34.5 Z M 32.5,34.5 C 32.5,36.1667 32.5,37.8333 32.5,39.5C 34.1667,39.5 35.8333,39.5 37.5,39.5C 37.5,37.8333 37.5,36.1667 37.5,34.5C 35.8333,34.5 34.1667,34.5 32.5,34.5 Z"/></g>
</svg>
