<?xml version="1.0" encoding="UTF-8"?>
<!DOCTYPE svg PUBLIC "-//W3C//DTD SVG 1.1//EN" "http://www.w3.org/Graphics/SVG/1.1/DTD/svg11.dtd">
<svg xmlns="http://www.w3.org/2000/svg" version="1.1" width="50px" height="50px" style="shape-rendering:geometricPrecision; text-rendering:geometricPrecision; image-rendering:optimizeQuality; fill-rule:evenodd; clip-rule:evenodd" xmlns:xlink="http://www.w3.org/1999/xlink">
<g><path style="opacity:0.762" fill="#000000" d="M 23.5,-0.5 C 24.1667,-0.5 24.8333,-0.5 25.5,-0.5C 27.795,2.29709 30.295,4.96376 33,7.5C 33.4828,8.44802 33.6495,9.44802 33.5,10.5C 30.3864,9.90868 27.8864,8.24201 26,5.5C 25,41.5 24,41.5 23,5.5C 21.1136,8.24201 18.6136,9.90868 15.5,10.5C 15.3505,9.44802 15.5172,8.44802 16,7.5C 18.705,4.96376 21.205,2.29709 23.5,-0.5 Z"/></g>
<g><path style="opacity:0.996" fill="#000000" d="M 42.5,49.5 C 30.5,49.5 18.5,49.5 6.5,49.5C 6.5,38.1667 6.5,26.8333 6.5,15.5C 10.226,15.1774 13.8927,15.5108 17.5,16.5C 14.5719,17.4841 11.5719,17.8174 8.5,17.5C 8.5,27.5 8.5,37.5 8.5,47.5C 19.1667,47.5 29.8333,47.5 40.5,47.5C 40.5,37.5 40.5,27.5 40.5,17.5C 37.4281,17.8174 34.4281,17.4841 31.5,16.5C 35.1073,15.5108 38.774,15.1774 42.5,15.5C 42.5,26.8333 42.5,38.1667 42.5,49.5 Z"/></g>
</svg>
