<?xml version="1.0" encoding="UTF-8"?>
<!DOCTYPE svg PUBLIC "-//W3C//DTD SVG 1.1//EN" "http://www.w3.org/Graphics/SVG/1.1/DTD/svg11.dtd">
<svg xmlns="http://www.w3.org/2000/svg" version="1.1" width="50px" height="50px" style="shape-rendering:geometricPrecision; text-rendering:geometricPrecision; image-rendering:optimizeQuality; fill-rule:evenodd; clip-rule:evenodd" xmlns:xlink="http://www.w3.org/1999/xlink">
<g><path style="opacity:0.687" fill="#000000" d="M 20.5,2.5 C 25.4447,1.87435 29.9447,2.87435 34,5.5C 35.0296,7.5883 35.8629,9.75497 36.5,12C 35.6058,15.7762 35.2725,19.6095 35.5,23.5C 34.0222,23.762 32.6888,23.4287 31.5,22.5C 32.474,17.7856 32.474,12.9522 31.5,8C 27.1223,4.50884 22.9557,4.67551 19,8.5C 18.7275,12.4902 18.5608,16.3236 18.5,20C 20.6711,23.5233 21.8377,27.3566 22,31.5C 24.0408,32.4231 26.2075,32.7564 28.5,32.5C 28.5,33.5 28.5,34.5 28.5,35.5C 22.4371,34.8377 16.7704,36.0044 11.5,39C 10.3128,40.0195 9.31277,41.1861 8.5,42.5C 15.1667,43.1667 21.8333,43.8333 28.5,44.5C 20.5208,45.6649 12.5208,45.8316 4.5,45C 5.09231,41.9683 6.42565,39.3016 8.5,37C 11.6841,35.4964 14.8507,33.9964 18,32.5C 18.7364,29.1811 18.0697,26.1811 16,23.5C 15.3333,18.1667 15.3333,12.8333 16,7.5C 17.025,5.31305 18.525,3.64638 20.5,2.5 Z"/></g>
<g><path style="opacity:0.944" fill="#000000" d="M 49.5,29.5 C 49.5,36.1667 49.5,42.8333 49.5,49.5C 43.1667,49.5 36.8333,49.5 30.5,49.5C 30.5,41.5 30.5,33.5 30.5,25.5C 35.5111,25.3341 40.5111,25.5007 45.5,26C 46.7051,27.3756 48.0384,28.5423 49.5,29.5 Z M 32.5,27.5 C 35.5,27.5 38.5,27.5 41.5,27.5C 41.5,29.5 41.5,31.5 41.5,33.5C 43.5,33.5 45.5,33.5 47.5,33.5C 47.5,38.1667 47.5,42.8333 47.5,47.5C 42.5,47.5 37.5,47.5 32.5,47.5C 32.5,40.8333 32.5,34.1667 32.5,27.5 Z M 43.5,29.5 C 44.2891,29.7828 44.9558,30.2828 45.5,31C 44.184,31.5281 43.5173,31.0281 43.5,29.5 Z"/></g>
<g><path style="opacity:0.957" fill="#000000" d="M 34.5,35.5 C 38.226,35.1774 41.8927,35.5108 45.5,36.5C 43.6667,36.8333 41.8333,37.1667 40,37.5C 37.7047,37.4535 35.8714,36.7868 34.5,35.5 Z"/></g>
<g><path style="opacity:0.932" fill="#000000" d="M 34.5,39.5 C 36.924,39.1924 39.2573,39.5258 41.5,40.5C 40.3333,40.8333 39.1667,41.1667 38,41.5C 36.3189,41.3917 35.1522,40.7251 34.5,39.5 Z"/></g>
<g><path style="opacity:0.953" fill="#000000" d="M 34.5,43.5 C 37.8984,43.1796 41.2317,43.513 44.5,44.5C 42.8333,44.8333 41.1667,45.1667 39.5,45.5C 37.3603,45.4439 35.6936,44.7773 34.5,43.5 Z"/></g>
</svg>
