<?xml version="1.0" encoding="UTF-8"?>
<!DOCTYPE svg PUBLIC "-//W3C//DTD SVG 1.1//EN" "http://www.w3.org/Graphics/SVG/1.1/DTD/svg11.dtd">
<svg xmlns="http://www.w3.org/2000/svg" version="1.1" width="50px" height="50px" style="shape-rendering:geometricPrecision; text-rendering:geometricPrecision; image-rendering:optimizeQuality; fill-rule:evenodd; clip-rule:evenodd" xmlns:xlink="http://www.w3.org/1999/xlink">
<g><path style="opacity:0.74" fill="#000000" d="M 29.5,4.5 C 30.8333,4.5 32.1667,4.5 33.5,4.5C 33.5,5.5 33.5,6.5 33.5,7.5C 25.0904,10.2009 16.7571,13.2009 8.5,16.5C 7.83333,23.5 7.16667,30.5 6.5,37.5C 5.5023,29.5277 5.16897,21.5277 5.5,13.5C 13.7758,11.0199 21.7758,8.01993 29.5,4.5 Z"/></g>
<g><path style="opacity:0.741" fill="#000000" d="M 34.5,8.5 C 35.8333,8.5 37.1667,8.5 38.5,8.5C 38.5,9.5 38.5,10.5 38.5,11.5C 30.0904,14.2009 21.7571,17.2009 13.5,20.5C 12.8333,27.5 12.1667,34.5 11.5,41.5C 10.5023,33.5277 10.169,25.5277 10.5,17.5C 18.7758,15.0199 26.7758,12.0199 34.5,8.5 Z"/></g>
<g><path style="opacity:0.752" fill="#000000" d="M 39.5,12.5 C 40.8333,12.5 42.1667,12.5 43.5,12.5C 43.5,20.8333 43.5,29.1667 43.5,37.5C 34.2949,40.9017 24.9616,43.9017 15.5,46.5C 15.5,38.1667 15.5,29.8333 15.5,21.5C 23.7758,19.0199 31.7758,16.0199 39.5,12.5 Z M 40.5,15.5 C 41.8174,21.6783 41.8174,28.0117 40.5,34.5C 32.8636,37.2109 25.3636,40.2109 18,43.5C 17.1694,37.1405 17.3361,30.8072 18.5,24.5C 26.0944,21.8647 33.4277,18.8647 40.5,15.5 Z"/></g>
</svg>
