<?xml version="1.0" encoding="UTF-8"?>
<!DOCTYPE svg PUBLIC "-//W3C//DTD SVG 1.1//EN" "http://www.w3.org/Graphics/SVG/1.1/DTD/svg11.dtd">
<svg xmlns="http://www.w3.org/2000/svg" version="1.1" width="50px" height="50px" style="shape-rendering:geometricPrecision; text-rendering:geometricPrecision; image-rendering:optimizeQuality; fill-rule:evenodd; clip-rule:evenodd" xmlns:xlink="http://www.w3.org/1999/xlink">
<g><path style="opacity:0.996" fill="#000000" d="M 2.5,3.5 C 9.5,3.5 16.5,3.5 23.5,3.5C 23.5,17.5 23.5,31.5 23.5,45.5C 16.5,45.5 9.5,45.5 2.5,45.5C 2.5,31.5 2.5,17.5 2.5,3.5 Z M 4.5,5.5 C 10.1667,5.5 15.8333,5.5 21.5,5.5C 21.5,18.1667 21.5,30.8333 21.5,43.5C 15.8333,43.5 10.1667,43.5 4.5,43.5C 4.5,30.8333 4.5,18.1667 4.5,5.5 Z M 12.5,21.5 C 15.1247,22.4657 15.1247,23.4657 12.5,24.5C 11.4376,23.5754 11.4376,22.5754 12.5,21.5 Z"/></g>
<g><path style="opacity:0.996" fill="#000000" d="M 25.5,3.5 C 32.5,3.5 39.5,3.5 46.5,3.5C 46.5,17.5 46.5,31.5 46.5,45.5C 39.5,45.5 32.5,45.5 25.5,45.5C 25.5,31.5 25.5,17.5 25.5,3.5 Z M 27.5,5.5 C 33.1667,5.5 38.8333,5.5 44.5,5.5C 44.5,18.1667 44.5,30.8333 44.5,43.5C 38.8333,43.5 33.1667,43.5 27.5,43.5C 27.5,30.8333 27.5,18.1667 27.5,5.5 Z M 35.5,21.5 C 38.1247,22.4657 38.1247,23.4657 35.5,24.5C 34.4376,23.5754 34.4376,22.5754 35.5,21.5 Z"/></g>
<g><path style="opacity:0.968" fill="#000000" d="M 5.5,11.5 C 10.544,11.1725 15.544,11.5059 20.5,12.5C 18,12.8333 15.5,13.1667 13,13.5C 10.0706,13.4752 7.57056,12.8086 5.5,11.5 Z"/></g>
<g><path style="opacity:0.968" fill="#000000" d="M 28.5,11.5 C 33.544,11.1725 38.544,11.5059 43.5,12.5C 41,12.8333 38.5,13.1667 36,13.5C 33.0706,13.4752 30.5706,12.8086 28.5,11.5 Z"/></g>
<g><path style="opacity:0.734" fill="#000000" d="M 11.5,16.5 C 13.8217,18.4116 16.4884,19.745 19.5,20.5C 18.0795,23.2613 17.4129,26.2613 17.5,29.5C 14.5,28.1667 11.5,28.1667 8.5,29.5C 8.58714,26.2613 7.92048,23.2613 6.5,20.5C 9.54649,20.8174 11.2132,19.4841 11.5,16.5 Z M 12.5,21.5 C 11.4376,22.5754 11.4376,23.5754 12.5,24.5C 15.1247,23.4657 15.1247,22.4657 12.5,21.5 Z"/></g>
<g><path style="opacity:0.734" fill="#000000" d="M 34.5,16.5 C 36.8217,18.4116 39.4884,19.745 42.5,20.5C 41.0795,23.2613 40.4129,26.2613 40.5,29.5C 37.5,28.1667 34.5,28.1667 31.5,29.5C 31.5871,26.2613 30.9205,23.2613 29.5,20.5C 32.5465,20.8174 34.2132,19.4841 34.5,16.5 Z M 35.5,21.5 C 34.4376,22.5754 34.4376,23.5754 35.5,24.5C 38.1247,23.4657 38.1247,22.4657 35.5,21.5 Z"/></g>
<g><path style="opacity:0.968" fill="#000000" d="M 5.5,32.5 C 10.544,32.1725 15.544,32.5059 20.5,33.5C 18,33.8333 15.5,34.1667 13,34.5C 10.0706,34.4752 7.57056,33.8086 5.5,32.5 Z"/></g>
<g><path style="opacity:0.968" fill="#000000" d="M 28.5,32.5 C 33.544,32.1725 38.544,32.5059 43.5,33.5C 41,33.8333 38.5,34.1667 36,34.5C 33.0706,34.4752 30.5706,33.8086 28.5,32.5 Z"/></g>
<g><path style="opacity:0.968" fill="#000000" d="M 5.5,36.5 C 10.544,36.1725 15.544,36.5059 20.5,37.5C 18,37.8333 15.5,38.1667 13,38.5C 10.0706,38.4752 7.57056,37.8086 5.5,36.5 Z"/></g>
<g><path style="opacity:0.968" fill="#000000" d="M 28.5,36.5 C 33.544,36.1725 38.544,36.5059 43.5,37.5C 41,37.8333 38.5,38.1667 36,38.5C 33.0706,38.4752 30.5706,37.8086 28.5,36.5 Z"/></g>
</svg>
