<?xml version="1.0" encoding="UTF-8"?>
<!DOCTYPE svg PUBLIC "-//W3C//DTD SVG 1.1//EN" "http://www.w3.org/Graphics/SVG/1.1/DTD/svg11.dtd">
<svg xmlns="http://www.w3.org/2000/svg" version="1.1" width="50px" height="50px" style="shape-rendering:geometricPrecision; text-rendering:geometricPrecision; image-rendering:optimizeQuality; fill-rule:evenodd; clip-rule:evenodd" xmlns:xlink="http://www.w3.org/1999/xlink">
<g><path style="opacity:0.945" fill="#000000" d="M 6.5,1.5 C 14.84,1.3336 23.1733,1.50027 31.5,2C 35,5.5 38.5,9 42,12.5C 42.4999,24.1619 42.6665,35.8286 42.5,47.5C 30.5,47.5 18.5,47.5 6.5,47.5C 6.5,32.1667 6.5,16.8333 6.5,1.5 Z M 8.5,3.5 C 15.1667,3.5 21.8333,3.5 28.5,3.5C 28.5,6.16667 28.5,8.83333 28.5,11.5C 23.7863,11.1734 19.1196,11.5067 14.5,12.5C 23.1267,13.9709 31.7934,14.9709 40.5,15.5C 40.5,25.5 40.5,35.5 40.5,45.5C 29.8333,45.5 19.1667,45.5 8.5,45.5C 8.5,31.5 8.5,17.5 8.5,3.5 Z M 30.5,6.5 C 32.9635,8.46114 35.2968,10.6278 37.5,13C 35.1902,13.4966 32.8568,13.6633 30.5,13.5C 30.5,11.1667 30.5,8.83333 30.5,6.5 Z"/></g>
<g><path style="opacity:1" fill="#000000" d="M 14.5,21.5 C 15.675,21.281 16.675,21.6143 17.5,22.5C 15.9483,23.7979 14.9483,23.4646 14.5,21.5 Z"/></g>
<g><path style="opacity:1" fill="#000000" d="M 21.5,21.5 C 25.8839,21.1744 30.2172,21.5078 34.5,22.5C 32.3333,22.8333 30.1667,23.1667 28,23.5C 25.3897,23.4668 23.223,22.8001 21.5,21.5 Z"/></g>
<g><path style="opacity:1" fill="#000000" d="M 14.5,27.5 C 15.675,27.281 16.675,27.6143 17.5,28.5C 15.9483,29.7979 14.9483,29.4646 14.5,27.5 Z"/></g>
<g><path style="opacity:1" fill="#000000" d="M 21.5,27.5 C 25.8839,27.1744 30.2172,27.5078 34.5,28.5C 32.3333,28.8333 30.1667,29.1667 28,29.5C 25.3897,29.4668 23.223,28.8001 21.5,27.5 Z"/></g>
<g><path style="opacity:1" fill="#000000" d="M 14.5,33.5 C 15.675,33.281 16.675,33.6143 17.5,34.5C 15.9483,35.7979 14.9483,35.4646 14.5,33.5 Z"/></g>
<g><path style="opacity:1" fill="#000000" d="M 21.5,33.5 C 25.8839,33.1744 30.2172,33.5078 34.5,34.5C 32.3333,34.8333 30.1667,35.1667 28,35.5C 25.3897,35.4668 23.223,34.8001 21.5,33.5 Z"/></g>
</svg>
