<?xml version="1.0" encoding="UTF-8"?>
<!DOCTYPE svg PUBLIC "-//W3C//DTD SVG 1.1//EN" "http://www.w3.org/Graphics/SVG/1.1/DTD/svg11.dtd">
<svg xmlns="http://www.w3.org/2000/svg" version="1.1" width="100px" height="100px" style="shape-rendering:geometricPrecision; text-rendering:geometricPrecision; image-rendering:optimizeQuality; fill-rule:evenodd; clip-rule:evenodd" xmlns:xlink="http://www.w3.org/1999/xlink">
<g><path style="opacity:0.969" fill="#c9ede6" d="M 88.5,51.5 C 87.6364,50.3117 86.6364,49.1451 85.5,48C 82.4618,47.6641 79.6285,46.8307 77,45.5C 74.0163,47.3764 71.0163,49.3764 68,51.5C 67.5026,48.854 67.3359,46.1873 67.5,43.5C 68.5,43.5 69.5,43.5 70.5,43.5C 70.4802,41.857 71.1468,40.5237 72.5,39.5C 72.3764,38.8933 72.0431,38.56 71.5,38.5C 64.4744,33.499 57.1411,28.8323 49.5,24.5C 42.4273,28.3594 35.7606,32.6927 29.5,37.5C 28.3569,37.9081 27.3569,38.5748 26.5,39.5C 27.8532,40.5237 28.5198,41.857 28.5,43.5C 29.5,43.5 30.5,43.5 31.5,43.5C 31.666,48.8437 31.4994,54.1771 31,59.5C 30.6174,58.944 30.1174,58.6107 29.5,58.5C 28.8658,57.0532 27.6991,56.3866 26,56.5C 24.3009,56.3866 23.1342,57.0532 22.5,58.5C 20.3027,60.4251 17.9694,62.0918 15.5,63.5C 15.1667,63.5 14.8333,63.5 14.5,63.5C 11.52,61.4167 8.85334,58.9167 6.5,56C 7.16667,55.6667 7.83333,55.3333 8.5,55C 3.20631,54.1822 3.20631,53.6822 8.5,53.5C 8.15272,46.8208 11.1527,42.8208 17.5,41.5C 18.1696,35.6627 21.1696,31.496 26.5,29C 29.8333,28.6667 33.1667,28.3333 36.5,28C 44.0612,12.9692 55.3946,9.30251 70.5,17C 72.208,19.0435 74.208,20.7101 76.5,22C 76.1667,22.3333 75.8333,22.6667 75.5,23C 76.5,24 77.5,25 78.5,26C 78.2964,28.6213 78.2964,31.4547 78.5,34.5C 86.1446,37.435 89.4779,43.1017 88.5,51.5 Z"/></g>
<g><path style="opacity:1" fill="#c4beb6" d="M 69.5,39.5 C 55.9895,39.8289 42.6562,39.4956 29.5,38.5C 36.1768,34.4959 42.8435,30.4959 49.5,26.5C 56.7223,30.0702 63.389,34.4035 69.5,39.5 Z"/></g>
<g><path style="opacity:1" fill="#604b48" d="M 71.5,38.5 C 70.8333,38.8333 70.1667,39.1667 69.5,39.5C 63.389,34.4035 56.7223,30.0702 49.5,26.5C 42.8435,30.4959 36.1768,34.4959 29.5,38.5C 29.5,38.1667 29.5,37.8333 29.5,37.5C 35.7606,32.6927 42.4273,28.3594 49.5,24.5C 57.1411,28.8323 64.4744,33.499 71.5,38.5 Z"/></g>
<g><path style="opacity:1" fill="#faf9ec" d="M 48.5,29.5 C 53.4454,32.3095 58.4454,35.1428 63.5,38C 54.1667,38.6667 44.8333,38.6667 35.5,38C 40.2585,35.7275 44.5918,32.8941 48.5,29.5 Z"/></g>
<g><path style="opacity:1" fill="#4c312f" d="M 29.5,37.5 C 29.5,37.8333 29.5,38.1667 29.5,38.5C 42.6562,39.4956 55.9895,39.8289 69.5,39.5C 70.1667,39.1667 70.8333,38.8333 71.5,38.5C 72.0431,38.56 72.3764,38.8933 72.5,39.5C 71.1468,40.5237 70.4802,41.857 70.5,43.5C 69.5,43.5 68.5,43.5 67.5,43.5C 67.3359,46.1873 67.5026,48.854 68,51.5C 71.0163,49.3764 74.0163,47.3764 77,45.5C 79.6285,46.8307 82.4618,47.6641 85.5,48C 86.6364,49.1451 87.6364,50.3117 88.5,51.5C 89.9931,52.3121 90.6598,53.6455 90.5,55.5C 90.4805,56.7261 90.1471,57.7261 89.5,58.5C 87.283,59.3686 84.9496,59.702 82.5,59.5C 91.0613,57.8263 91.728,54.3263 84.5,49C 83.451,48.5078 82.451,48.6744 81.5,49.5C 80.1255,48.2887 78.6255,47.2887 77,46.5C 74.5237,48.9301 71.6904,50.9301 68.5,52.5C 67.5344,54.396 67.2011,56.396 67.5,58.5C 70.7131,58.19 73.7131,58.5233 76.5,59.5C 73.4281,59.1826 70.4281,59.5159 67.5,60.5C 68.2458,61.7362 68.5792,63.0695 68.5,64.5C 69.8221,64.33 70.9887,64.6634 72,65.5C 72.8215,68.1168 73.3215,70.7835 73.5,73.5C 62.5,73.5 51.5,73.5 40.5,73.5C 42.0808,71.8583 42.7475,69.8583 42.5,67.5C 40.1073,66.6473 38.774,64.9806 38.5,62.5C 35.994,59.9142 33.494,59.9142 31,62.5C 30.2086,61.255 29.7086,59.9217 29.5,58.5C 30.1174,58.6107 30.6174,58.944 31,59.5C 31.4994,54.1771 31.666,48.8437 31.5,43.5C 30.5,43.5 29.5,43.5 28.5,43.5C 28.5198,41.857 27.8532,40.5237 26.5,39.5C 27.3569,38.5748 28.3569,37.9081 29.5,37.5 Z"/></g>
<g><path style="opacity:1" fill="#cccbbc" d="M 29.5,40.5 C 42.85,40.1675 56.1833,40.5008 69.5,41.5C 62.8333,41.8333 56.1667,42.1667 49.5,42.5C 42.4649,42.4968 35.7983,41.8301 29.5,40.5 Z"/></g>
<g><path style="opacity:1" fill="#fcfced" d="M 32.5,43.5 C 33.8333,43.5 35.1667,43.5 36.5,43.5C 36.5,48.8333 36.5,54.1667 36.5,59.5C 35.1667,59.5 33.8333,59.5 32.5,59.5C 32.5,54.1667 32.5,48.8333 32.5,43.5 Z"/></g>
<g><path style="opacity:1" fill="#c6ece5" d="M 38.5,62.5 C 37.582,56.2252 37.2487,49.8918 37.5,43.5C 38.8333,43.5 40.1667,43.5 41.5,43.5C 41.8844,50.5888 41.3844,57.5888 40,64.5C 39.7216,63.5842 39.2216,62.9175 38.5,62.5 Z"/></g>
<g><path style="opacity:1" fill="#fcfced" d="M 42.5,43.5 C 43.8333,43.5 45.1667,43.5 46.5,43.5C 46.5,49.5 46.5,55.5 46.5,61.5C 45.1667,61.5 43.8333,61.5 42.5,61.5C 42.5,55.5 42.5,49.5 42.5,43.5 Z"/></g>
<g><path style="opacity:1" fill="#c6ede5" d="M 47.5,43.5 C 48.8333,43.5 50.1667,43.5 51.5,43.5C 51.6662,49.5092 51.4995,55.5092 51,61.5C 50,65.5 49,65.5 48,61.5C 47.5005,55.5092 47.3338,49.5092 47.5,43.5 Z"/></g>
<g><path style="opacity:1" fill="#fcfced" d="M 52.5,43.5 C 53.8333,43.5 55.1667,43.5 56.5,43.5C 56.5,49.5 56.5,55.5 56.5,61.5C 55.1667,61.5 53.8333,61.5 52.5,61.5C 52.5,55.5 52.5,49.5 52.5,43.5 Z"/></g>
<g><path style="opacity:1" fill="#c6ede5" d="M 57.5,43.5 C 58.8333,43.5 60.1667,43.5 61.5,43.5C 61.6662,49.5092 61.4995,55.5092 61,61.5C 60,65.5 59,65.5 58,61.5C 57.5005,55.5092 57.3338,49.5092 57.5,43.5 Z"/></g>
<g><path style="opacity:1" fill="#fcfced" d="M 62.5,43.5 C 63.8333,43.5 65.1667,43.5 66.5,43.5C 66.5,49.5 66.5,55.5 66.5,61.5C 65.1667,61.5 63.8333,61.5 62.5,61.5C 62.5,55.5 62.5,49.5 62.5,43.5 Z"/></g>
<g><path style="opacity:1" fill="#f8f6e9" d="M 82.5,59.5 C 80.3591,59.1121 78.3591,59.1121 76.5,59.5C 73.7131,58.5233 70.7131,58.19 67.5,58.5C 67.2011,56.396 67.5344,54.396 68.5,52.5C 71.6904,50.9301 74.5237,48.9301 77,46.5C 78.6255,47.2887 80.1255,48.2887 81.5,49.5C 82.451,48.6744 83.451,48.5078 84.5,49C 91.728,54.3263 91.0613,57.8263 82.5,59.5 Z"/></g>
<g><path style="opacity:1" fill="#786661" d="M 29.5,58.5 C 27.1667,57.1667 24.8333,57.1667 22.5,58.5C 23.1342,57.0532 24.3009,56.3866 26,56.5C 27.6991,56.3866 28.8658,57.0532 29.5,58.5 Z"/></g>
<g><path style="opacity:1" fill="#f7f6e9" d="M 29.5,58.5 C 29.7086,59.9217 30.2086,61.255 31,62.5C 33.494,59.9142 35.994,59.9142 38.5,62.5C 38.774,64.9806 40.1073,66.6473 42.5,67.5C 42.7475,69.8583 42.0808,71.8583 40.5,73.5C 36.7657,73.3227 33.0991,73.6561 29.5,74.5C 24.0149,73.6728 18.3482,73.1728 12.5,73C 9.43265,68.7776 10.4326,65.9443 15.5,64.5C 16.9049,62.6211 18.5716,62.2878 20.5,63.5C 21.562,61.9783 22.2287,60.3117 22.5,58.5C 24.8333,57.1667 27.1667,57.1667 29.5,58.5 Z"/></g>
<g><path style="opacity:0.965" fill="#c5e9e2" d="M 82.5,59.5 C 84.9496,59.702 87.283,59.3686 89.5,58.5C 93.0066,70.1598 88.6733,75.9931 76.5,76C 70.6861,82.2645 64.1861,83.0978 57,78.5C 50.8942,85.0917 43.3942,87.2583 34.5,85C 29.0737,83.0703 25.0737,79.5703 22.5,74.5C 24.8333,74.5 27.1667,74.5 29.5,74.5C 33.0991,73.6561 36.7657,73.3227 40.5,73.5C 51.5,73.5 62.5,73.5 73.5,73.5C 73.3215,70.7835 72.8215,68.1168 72,65.5C 70.9887,64.6634 69.8221,64.33 68.5,64.5C 68.5792,63.0695 68.2458,61.7362 67.5,60.5C 70.4281,59.5159 73.4281,59.1826 76.5,59.5C 78.3591,59.1121 80.3591,59.1121 82.5,59.5 Z"/></g>
<g><path style="opacity:1" fill="#776460" d="M 22.5,58.5 C 22.2287,60.3117 21.562,61.9783 20.5,63.5C 18.5716,62.2878 16.9049,62.6211 15.5,64.5C 15.5,64.1667 15.5,63.8333 15.5,63.5C 17.9694,62.0918 20.3027,60.4251 22.5,58.5 Z"/></g>
<g><path style="opacity:1" fill="#edecd8" d="M 41.5,62.5 C 43.604,62.2011 45.604,62.5344 47.5,63.5C 46.5,63.8333 45.5,64.1667 44.5,64.5C 42.9704,64.3601 41.9704,63.6935 41.5,62.5 Z"/></g>
<g><path style="opacity:1" fill="#edecd8" d="M 51.5,62.5 C 53.604,62.2011 55.604,62.5344 57.5,63.5C 56.5,63.8333 55.5,64.1667 54.5,64.5C 52.9704,64.3601 51.9704,63.6935 51.5,62.5 Z"/></g>
<g><path style="opacity:1" fill="#edecd8" d="M 61.5,62.5 C 63.604,62.2011 65.604,62.5344 67.5,63.5C 66.5,63.8333 65.5,64.1667 64.5,64.5C 62.9704,64.3601 61.9704,63.6935 61.5,62.5 Z"/></g>
<g><path style="opacity:1" fill="#978b81" d="M 70.5,66.5 C 61.3178,66.1734 52.3178,66.5067 43.5,67.5C 43.1667,67.5 42.8333,67.5 42.5,67.5C 46.7825,66.1734 51.4492,65.5067 56.5,65.5C 61.3457,65.5008 66.0124,65.8341 70.5,66.5 Z"/></g>
<g><path style="opacity:1" fill="#b5aea2" d="M 70.5,66.5 C 71.1495,68.4352 71.4828,70.4352 71.5,72.5C 62.1667,72.5 52.8333,72.5 43.5,72.5C 43.5,70.8333 43.5,69.1667 43.5,67.5C 52.3178,66.5067 61.3178,66.1734 70.5,66.5 Z"/></g>
<g><path style="opacity:1" fill="#a79a92" d="M 21.5,64.5 C 22.0431,64.56 22.3764,64.8933 22.5,65.5C 20.3638,67.1961 18.0305,68.0294 15.5,68C 17.4319,66.5415 19.4319,65.3748 21.5,64.5 Z"/></g>
<g><path style="opacity:1" fill="#4b2f2d" d="M 14.5,63.5 C 14.8333,63.5 15.1667,63.5 15.5,63.5C 15.5,63.8333 15.5,64.1667 15.5,64.5C 10.4326,65.9443 9.43265,68.7776 12.5,73C 18.3482,73.1728 24.0149,73.6728 29.5,74.5C 27.1667,74.5 24.8333,74.5 22.5,74.5C 18.8183,74.6653 15.1516,74.4986 11.5,74C 8.21621,69.1551 9.21621,65.6551 14.5,63.5 Z"/></g>
</svg>
