<?xml version="1.0" encoding="UTF-8"?>
<!DOCTYPE svg PUBLIC "-//W3C//DTD SVG 1.1//EN" "http://www.w3.org/Graphics/SVG/1.1/DTD/svg11.dtd">
<svg xmlns="http://www.w3.org/2000/svg" version="1.1" width="50px" height="50px" style="shape-rendering:geometricPrecision; text-rendering:geometricPrecision; image-rendering:optimizeQuality; fill-rule:evenodd; clip-rule:evenodd" xmlns:xlink="http://www.w3.org/1999/xlink">
<g><path style="opacity:0.569" fill="#fefffe" d="M 49.5,13.5 C 49.5,14.5 49.5,15.5 49.5,16.5C 40.8628,13.6849 32.5295,10.0183 24.5,5.5C 16.4705,10.0183 8.13721,13.6849 -0.5,16.5C -0.5,15.5 -0.5,14.5 -0.5,13.5C 7.71513,9.55897 16.0485,5.89231 24.5,2.5C 32.9515,5.89231 41.2849,9.55897 49.5,13.5 Z"/></g>
<g><path style="opacity:0.996" fill="#fefffe" d="M 11.5,13.5 C 14.5,13.5 17.5,13.5 20.5,13.5C 20.5,15.8333 20.5,18.1667 20.5,20.5C 22.5,20.5 24.5,20.5 26.5,20.5C 26.5,19.1667 26.5,17.8333 26.5,16.5C 30.1667,16.5 33.8333,16.5 37.5,16.5C 37.5,17.8333 37.5,19.1667 37.5,20.5C 40.1667,20.5 42.8333,20.5 45.5,20.5C 45.5,28.5 45.5,36.5 45.5,44.5C 31.5,44.5 17.5,44.5 3.5,44.5C 3.5,35.8333 3.5,27.1667 3.5,18.5C 6.16667,18.5 8.83333,18.5 11.5,18.5C 11.5,16.8333 11.5,15.1667 11.5,13.5 Z M 13.5,15.5 C 15.1667,15.5 16.8333,15.5 18.5,15.5C 18.5,24.5 18.5,33.5 18.5,42.5C 16.8333,42.5 15.1667,42.5 13.5,42.5C 13.5,33.5 13.5,24.5 13.5,15.5 Z M 28.5,18.5 C 30.8333,18.5 33.1667,18.5 35.5,18.5C 35.5,26.5 35.5,34.5 35.5,42.5C 33.1667,42.5 30.8333,42.5 28.5,42.5C 28.5,34.5 28.5,26.5 28.5,18.5 Z M 5.5,20.5 C 7.5,20.5 9.5,20.5 11.5,20.5C 11.5,27.8333 11.5,35.1667 11.5,42.5C 9.5,42.5 7.5,42.5 5.5,42.5C 5.5,35.1667 5.5,27.8333 5.5,20.5 Z M 20.5,22.5 C 22.5,22.5 24.5,22.5 26.5,22.5C 26.5,29.1667 26.5,35.8333 26.5,42.5C 24.5,42.5 22.5,42.5 20.5,42.5C 20.5,35.8333 20.5,29.1667 20.5,22.5 Z M 37.5,22.5 C 39.5,22.5 41.5,22.5 43.5,22.5C 43.5,29.1667 43.5,35.8333 43.5,42.5C 41.5,42.5 39.5,42.5 37.5,42.5C 37.5,35.8333 37.5,29.1667 37.5,22.5 Z"/></g>
<g><path style="opacity:0.842" fill="#fefffe" d="M 14.5,17.5 C 15.675,17.281 16.675,17.6143 17.5,18.5C 15.9483,19.7979 14.9483,19.4646 14.5,17.5 Z"/></g>
<g><path style="opacity:0.905" fill="#fefffe" d="M 29.5,20.5 C 31.288,20.2148 32.9547,20.5481 34.5,21.5C 33.6667,21.8333 32.8333,22.1667 32,22.5C 30.6244,22.3158 29.7911,21.6491 29.5,20.5 Z"/></g>
<g><path style="opacity:0.882" fill="#fefffe" d="M 6.5,22.5 C 7.97782,22.238 9.31116,22.5713 10.5,23.5C 9.83333,23.8333 9.16667,24.1667 8.5,24.5C 7.28665,24.2528 6.61998,23.5862 6.5,22.5 Z"/></g>
<g><path style="opacity:0.882" fill="#fefffe" d="M 21.5,24.5 C 22.9778,24.238 24.3112,24.5713 25.5,25.5C 24.8333,25.8333 24.1667,26.1667 23.5,26.5C 22.2867,26.2528 21.62,25.5862 21.5,24.5 Z"/></g>
<g><path style="opacity:0.882" fill="#fefffe" d="M 38.5,24.5 C 39.9778,24.238 41.3112,24.5713 42.5,25.5C 41.8333,25.8333 41.1667,26.1667 40.5,26.5C 39.2867,26.2528 38.62,25.5862 38.5,24.5 Z"/></g>
<g><path style="opacity:0.882" fill="#fefffe" d="M 6.5,38.5 C 7.97782,38.238 9.31116,38.5713 10.5,39.5C 9.83333,39.8333 9.16667,40.1667 8.5,40.5C 7.28665,40.2528 6.61998,39.5862 6.5,38.5 Z"/></g>
<g><path style="opacity:0.842" fill="#fefffe" d="M 14.5,38.5 C 15.675,38.281 16.675,38.6143 17.5,39.5C 15.9483,40.7979 14.9483,40.4646 14.5,38.5 Z"/></g>
<g><path style="opacity:0.882" fill="#fefffe" d="M 21.5,38.5 C 22.9778,38.238 24.3112,38.5713 25.5,39.5C 24.8333,39.8333 24.1667,40.1667 23.5,40.5C 22.2867,40.2528 21.62,39.5862 21.5,38.5 Z"/></g>
<g><path style="opacity:0.905" fill="#fefffe" d="M 29.5,38.5 C 31.288,38.2148 32.9547,38.5481 34.5,39.5C 33.6667,39.8333 32.8333,40.1667 32,40.5C 30.6244,40.3158 29.7911,39.6491 29.5,38.5 Z"/></g>
<g><path style="opacity:0.882" fill="#fefffe" d="M 38.5,38.5 C 39.9778,38.238 41.3112,38.5713 42.5,39.5C 41.8333,39.8333 41.1667,40.1667 40.5,40.5C 39.2867,40.2528 38.62,39.5862 38.5,38.5 Z"/></g>
</svg>
